<?xml version="1.0" encoding="utf-8"?>
<!-- Generator: Adobe Illustrator 19.1.1, SVG Export Plug-In . SVG Version: 6.00 Build 0)  -->
<svg version="1.1" id="Слой_1" xmlns="http://www.w3.org/2000/svg" xmlns:xlink="http://www.w3.org/1999/xlink" x="0px" y="0px"
	 viewBox="-473 269 12 24" style="enable-background:new -473 269 12 24;" xml:space="preserve">
<style type="text/css">
	.st0{fill:#3C4250;}
</style>
<path class="st0" d="M-467,291.4c0.6,0,1.1-0.5,1.1-1.1c0-0.6-0.5-1.1-1.1-1.1s-1.1,0.5-1.1,1.1C-468.1,290.9-467.6,291.4-467,291.4
	z M-463.2,269h-7.6c0,0-2.2,0-2.2,2.2v19.6c0,2.2,2.2,2.2,2.2,2.2h7.6c0,0,2.2,0,2.2-2.2v-19.6C-461,269-463.2,269-463.2,269z
	 M-462.1,290.8c0,0.5-0.2,0.8-0.5,0.9c-0.2,0.1-0.5,0.2-0.6,0.2h-7.6c-0.1,0-0.4,0-0.6-0.2c-0.3-0.2-0.5-0.4-0.5-0.9v-2.2h9.8V290.8
	z M-462.1,287.5h-9.8v-14.7h9.8V287.5z M-462.1,271.7c0,0-9.8,0-9.8,0c0,0,0-0.5,0-0.5c0-1.3,1.4-1.1,2.3-1.1c1.3,0,2.7,0,4,0
	c0.5,0,1,0,1.5,0c0.8,0,2,0,2,1.1C-462.1,271.2-462.1,271.7-462.1,271.7z"/>
</svg>
