<?xml version="1.0" encoding="utf-8"?>
<!-- Generator: Adobe Illustrator 19.1.1, SVG Export Plug-In . SVG Version: 6.00 Build 0)  -->
<svg version="1.1" id="Слой_1" xmlns="http://www.w3.org/2000/svg" xmlns:xlink="http://www.w3.org/1999/xlink" x="0px" y="0px"
	 viewBox="-464 266.2 30 28.8" style="enable-background:new -464 266.2 30 28.8;" xml:space="preserve">
<style type="text/css">
	.st0{fill:#FFFFFF;}
</style>
<path class="st0" d="M-435.7,290.2c0,0.7-0.4,0.7-0.7,0.7h-0.2l-7.1-1.5c-1.3-0.3-1.4,0.6-1.4,0.8v0.6c0,1.4-1.1,2.5-2.5,2.5h-12.2
	c-1.4,0-2.5-1.1-2.5-2.5v-8.9c0-1.4,1.1-2.5,2.5-2.5h12.3c1.4,0,2.5,1.1,2.5,2.5v2c0,0.3,0.2,0.8,1.1,0.5l7.5-2.4
	c0.2-0.1,0.8-0.1,0.8,0.6v7.6H-435.7z M-434.7,279.6l-7.1,2.4c-1.3,0.4-1.4,0-1.4-0.2v-2c0-1.2-0.8-2.2-1.8-2.2h-17.2
	c-1,0-1.8,1-1.8,2.2v12.9c0,1.2,0.8,2.2,1.8,2.2h17.2c1,0,1.8-1,1.8-2.2v-1.4c0-0.1,0.1-0.5,1.3-0.2l7.3,1.7
	c0.3,0.1,0.6,0.1,0.6-0.5v-12.2C-434,279.4-434.5,279.5-434.7,279.6z M-459.1,268.2c1.6,0,2.8,1.3,2.8,2.8c0,1.6-1.3,2.8-2.8,2.8
	s-2.9-1.2-2.9-2.7C-462,269.5-460.7,268.2-459.1,268.2z M-459.1,275.9c2.7,0,4.9-2.2,4.9-4.9c0-2.7-2.3-4.8-4.9-4.8
	c-2.7,0-4.9,2.2-4.9,4.9C-464,273.7-461.8,275.9-459.1,275.9z M-448,268.2c1.6,0,2.8,1.3,2.8,2.8c0,1.6-1.3,2.8-2.8,2.8
	s-2.8-1.3-2.8-2.8C-450.9,269.5-449.6,268.2-448,268.2z M-448,275.9c2.7,0,4.9-2.2,4.9-4.9c0-2.7-2.2-4.8-4.9-4.8s-4.9,2.2-4.9,4.9
	C-452.9,273.7-450.7,275.9-448,275.9z"/>
</svg>
