<?xml version="1.0" encoding="utf-8"?>
<!-- Generator: Adobe Illustrator 19.1.1, SVG Export Plug-In . SVG Version: 6.00 Build 0)  -->
<svg version="1.1" id="Слой_1" xmlns="http://www.w3.org/2000/svg" xmlns:xlink="http://www.w3.org/1999/xlink" x="0px" y="0px"
	 viewBox="-462 264.5 34.2 33.5" style="enable-background:new -462 264.5 34.2 33.5;" xml:space="preserve">
<style type="text/css">
	.st0{fill:#FFFFFF;}
</style>
<path class="st0" d="M-427.8,296.6l-7.6-7.6c2.1-2.6,3.4-5.9,3.4-9.5c0-8.2-6.7-15-15-15s-15,6.7-15,15c0,8.2,6.7,15,15,15
	c4,0,7.5-1.5,10.2-4.1l7.6,7.6C-429.2,298-427.8,296.6-427.8,296.6z M-447,292.8c-7.4,0-13.3-5.9-13.3-13.3s5.9-13.3,13.3-13.3
	s13.3,5.9,13.3,13.3S-439.6,292.8-447,292.8z M-446,273.9h-2v4.6h-4.6v2h4.6v4.6h2v-4.6h4.6v-2h-4.6V273.9z"/>
</svg>
