<svg xmlns="http://www.w3.org/2000/svg" viewBox="0 0 77 48.6" enable-background="new 0 0 77 48.6"><style type="text/css">.st0{fill-rule:evenodd;clip-rule:evenodd;fill:#2B2A29;} .st1{fill:none;} .st2{clip-path:url(#SVGID_2_);fill-rule:evenodd;clip-rule:evenodd;fill:#2B2A29;} .st3{fill:#231F20;} .st4{fill:#241F20;} .st5{fill-rule:evenodd;clip-rule:evenodd;fill:#E1836E;} .st6{fill:#1A171B;} .st7{fill:#FFFFFF;} .st8{fill:none;stroke:#FFFFFF;stroke-miterlimit:10;} .st9{fill:#2B2A29;} .st10{fill-rule:evenodd;clip-rule:evenodd;fill:none;stroke:#2B2A29;stroke-width:30;stroke-miterlimit:10;} .st11{fill:none;stroke:#2B2A29;stroke-width:30;stroke-miterlimit:10;} .st12{fill:none;stroke:#2B2A29;stroke-width:34;stroke-miterlimit:10;} .st13{fill:none;stroke:#2B2A29;stroke-width:69;stroke-miterlimit:10;} .st14{fill:#3C4250;} .st15{fill-rule:evenodd;clip-rule:evenodd;fill:#3C4250;}</style><path class="st14" d="M73.6 13.7c-4-1.3-8.3-.2-12 1.4.4-2.1.9-4.2 1.4-6.5 3.6-14.5-13.3-8.3-18.5 2-.8 1.6-1.2 3.1-1.2 4.5-2.8.7-6.1 1.7-9.4 3 1.4-5.4 2.4-7.7 2.4-7.7s-3.7-3.4-6.3-1.5c-3.1 1.2-6.1 4.1-9.2 10.2-1.3 2.5-2.5 5-3.6 7.3-7.5 4.5-13.8 9.8-16.5 14.7-2.5 4.6 2.3 9.2 7.7 6.9 4.5-1.9 7.9-9.6 12-18.9 1.7-.8 3.4-1.6 5.3-2.2-1 7.9 1.7 13.3 5.1 14.2 4.3 1.2 6.8-2.2 8.3-5.6 1.1-2.1 2.3-4.3 3.3-6.5 1.3 1.2 2.1 3.9 2.2 6.5l-1.9.8c-3.6 1.6-4.4 5.4-2.1 6.9 2.8 1.8 9.5-1.9 10.7-8l1.5-1c-.1 1.5-.1 3-.1 4.4 0 1.3.2 1.9.2 1.9 2.8 1.1 4.9 0 6.1-7.1 2.4-5.9 3.4-7.4 4.1-7.2.8.2.4 1.6-.8 6.2-1.4 5.3.9 8.6 3.5 9 2.6.3 5.9-2.3 7.4-6.1.5-1.2-.2-1.8-.9-1.5-1 2.8-3.1 5.2-4.4 4.9-1.2-.3-.3-3.5.5-7 1.3-5.5.1-8.5-1.5-8.9-2-.5-4.7.9-7.2 5.9.4-3.4.9-6.5 1.4-9.5 3.2-.7 6.2-.1 9 .7 4 1.2 4.9 3.5 4.9 3.5 2.2-2 3.6-8.1-1.4-9.7zm-67 30.5c-2.3 1-2.1-1.7-.7-4.3 1.3-2.6 4.4-5.1 8.3-7.5-3 6.4-5.3 10.8-7.6 11.8zm19.9-22.9l-3.3 1.6 1.1-2.3c1.3-2.8 2.5-5.1 3.5-7-.4 2.1-.9 4.7-1.3 7.7zm17.8 16.8c-.6 2.7-1.7 4.1-2.7 3.7-1.4-.6-.7-3.2 1.1-3.8.5-.2 1.1-.3 1.7-.5l-.1.6zm-6.4-3.5c-1.1 2.2-3.2 4.3-4.9 4.1-2.3-.3-2.3-4.9-.8-12.7l.3-1.6c2.1-.7 4.2-1.3 6.2-1.8-.2.3-.3.5-.3.7-.3 1.4.6 2.8 1.7 3.9-.4 2.3-1.3 5.3-2.2 7.4zm13.4-1.7c-.4-3.9-3.8-6.3-7.1-8.1l-.5-.2c.1-.9.1-2 0-2.9l1.9-.4.7-.1c1.9 1.2 4.6 1.6 7.8.5-.5 3.3-.9 6.7-1.2 9.9-.5.5-1 .9-1.6 1.3zm6.1-26.5c-1 3.3-1.9 7.5-2.8 12-1.3.5-2.3.6-3.2.4-.2-1.4-1-2.9-2.4-3.7-.1-1.9.4-4.1 1.3-6.1 3.8-7.8 8.9-9.2 7.1-2.6z"/></svg>