<?xml version="1.0" encoding="utf-8"?>
<!-- Generator: Adobe Illustrator 19.1.1, SVG Export Plug-In . SVG Version: 6.00 Build 0)  -->
<svg version="1.1" id="Слой_1" xmlns="http://www.w3.org/2000/svg" xmlns:xlink="http://www.w3.org/1999/xlink" x="0px" y="0px"
	 viewBox="-441 256.4 77 48.6" style="enable-background:new -441 256.4 77 48.6;" xml:space="preserve">
<style type="text/css">
	.st0{fill:#FFFFFF;}
</style>
<path class="st0" d="M-367.4,270.1c-4-1.3-8.3-0.2-12,1.4c0.4-2.1,0.9-4.2,1.4-6.5c3.6-14.5-13.3-8.3-18.5,2
	c-0.8,1.6-1.2,3.1-1.2,4.5c-2.8,0.7-6.1,1.7-9.4,3c1.4-5.4,2.4-7.7,2.4-7.7s-3.7-3.4-6.3-1.5c-3.1,1.2-6.1,4.1-9.2,10.2
	c-1.3,2.5-2.5,5-3.6,7.3c-7.5,4.5-13.8,9.8-16.5,14.7c-2.5,4.6,2.3,9.2,7.7,6.9c4.5-1.9,7.9-9.6,12-18.9c1.7-0.8,3.4-1.6,5.3-2.2
	c-1,7.9,1.7,13.3,5.1,14.2c4.3,1.2,6.8-2.2,8.3-5.6c1.1-2.1,2.3-4.3,3.3-6.5c1.3,1.2,2.1,3.9,2.2,6.5l-1.9,0.8
	c-3.6,1.6-4.4,5.4-2.1,6.9c2.8,1.8,9.5-1.9,10.7-8l1.5-1c-0.1,1.5-0.1,3-0.1,4.4c0,1.3,0.2,1.9,0.2,1.9c2.8,1.1,4.9,0,6.1-7.1
	c2.4-5.9,3.4-7.4,4.1-7.2c0.8,0.2,0.4,1.6-0.8,6.2c-1.4,5.3,0.9,8.6,3.5,9c2.6,0.3,5.9-2.3,7.4-6.1c0.5-1.2-0.2-1.8-0.9-1.5
	c-1,2.8-3.1,5.2-4.4,4.9c-1.2-0.3-0.3-3.5,0.5-7c1.3-5.5,0.1-8.5-1.5-8.9c-2-0.5-4.7,0.9-7.2,5.9c0.4-3.4,0.9-6.5,1.4-9.5
	c3.2-0.7,6.2-0.1,9,0.7c4,1.2,4.9,3.5,4.9,3.5C-363.8,277.8-362.4,271.7-367.4,270.1z M-434.4,300.6c-2.3,1-2.1-1.7-0.7-4.3
	c1.3-2.6,4.4-5.1,8.3-7.5C-429.8,295.2-432.1,299.6-434.4,300.6z M-414.5,277.7l-3.3,1.6l1.1-2.3c1.3-2.8,2.5-5.1,3.5-7
	C-413.6,272.1-414.1,274.7-414.5,277.7z M-396.7,294.5c-0.6,2.7-1.7,4.1-2.7,3.7c-1.4-0.6-0.7-3.2,1.1-3.8c0.5-0.2,1.1-0.3,1.7-0.5
	L-396.7,294.5z M-403.1,291c-1.1,2.2-3.2,4.3-4.9,4.1c-2.3-0.3-2.3-4.9-0.8-12.7l0.3-1.6c2.1-0.7,4.2-1.3,6.2-1.8
	c-0.2,0.3-0.3,0.5-0.3,0.7c-0.3,1.4,0.6,2.8,1.7,3.9C-401.3,285.9-402.2,288.9-403.1,291z M-389.7,289.3c-0.4-3.9-3.8-6.3-7.1-8.1
	l-0.5-0.2c0.1-0.9,0.1-2,0-2.9l1.9-0.4l0.7-0.1c1.9,1.2,4.6,1.6,7.8,0.5c-0.5,3.3-0.9,6.7-1.2,9.9
	C-388.6,288.5-389.1,288.9-389.7,289.3z M-383.6,262.8c-1,3.3-1.9,7.5-2.8,12c-1.3,0.5-2.3,0.6-3.2,0.4c-0.2-1.4-1-2.9-2.4-3.7
	c-0.1-1.9,0.4-4.1,1.3-6.1C-386.9,257.6-381.8,256.2-383.6,262.8z"/>
</svg>
