<?xml version="1.0" encoding="utf-8"?>
<!-- Generator: Adobe Illustrator 19.1.1, SVG Export Plug-In . SVG Version: 6.00 Build 0)  -->
<svg version="1.1" id="Layer_1" xmlns="http://www.w3.org/2000/svg" xmlns:xlink="http://www.w3.org/1999/xlink" x="0px" y="0px"
	 viewBox="-467 269 24 24" style="enable-background:new -467 269 24 24;" xml:space="preserve">
<style type="text/css">
	.st0{fill:#3C4250;}
</style>
<path class="st0" d="M-455,269c-6.6,0-12,5.3-12,12c0,6.6,5.3,12,12,12c6.6,0,12-5.4,12-12S-448.4,269-455,269z M-455,291.6
	c-5.9,0-10.6-4.7-10.6-10.6s4.7-10.6,10.6-10.6s10.6,4.8,10.6,10.6S-449.1,291.6-455,291.6z"/>
<path class="st0" d="M-459.8,278c0,0,0.5-0.1,0.7,0.4c0.1,0.3,0.9,1.8,1.2,2.3c0.3,0.4,0.9,0.8,1,0.3s0.1-1.9,0.1-1.9
	s-0.1-0.4-0.2-0.6c-0.2-0.2-0.6-0.3-0.6-0.3s-0.2-0.1,0.2-0.3c0.3-0.2,1.8-0.2,2.5-0.1c0.6,0.1,0.5,1.3,0.5,1.3v1.6
	c0,0,0,0.9,0.6,0.4c0.5-0.4,0.9-1.2,1.2-1.8c0.3-0.6,0.3-0.8,0.3-0.8s0.1-0.4,0.5-0.4c0.5,0,2.1,0,2.1,0s0.6-0.1,0.4,0.5
	c-0.2,0.6-1.3,2-1.3,2l-0.6,0.6c0,0-0.4,0.4,0.1,1c0.5,0.5,1.5,1.6,1.5,1.6s0.4,0.4,0.3,0.8c-0.1,0.4-0.7,0.4-0.9,0.4
	c-0.2,0-1.4,0-1.4,0s-0.6,0-1-0.4c-0.3-0.4-1-1.1-1-1.1s-0.4-0.4-0.6-0.1c-0.2,0.3-0.3,0.7-0.3,0.9c0,0.2,0,0.3,0,0.3
	s-0.1,0.4-0.6,0.4c-0.6,0-1,0-1,0s-1.3-0.2-2.3-1.1s-1.9-2.4-2.1-2.8s-1.3-2.6-1.3-2.6s-0.2-0.5,0.4-0.5
	C-460.8,278-459.8,278-459.8,278z"/>
</svg>
