<?xml version="1.0" encoding="UTF-8" standalone="no"?>
<!-- Generator: Adobe Illustrator 19.1.1, SVG Export Plug-In . SVG Version: 6.00 Build 0)  -->

<svg
   xmlns:dc="http://purl.org/dc/elements/1.1/"
   xmlns:cc="http://creativecommons.org/ns#"
   xmlns:rdf="http://www.w3.org/1999/02/22-rdf-syntax-ns#"
   xmlns:svg="http://www.w3.org/2000/svg"
   xmlns="http://www.w3.org/2000/svg"
   xmlns:sodipodi="http://sodipodi.sourceforge.net/DTD/sodipodi-0.dtd"
   xmlns:inkscape="http://www.inkscape.org/namespaces/inkscape"
   version="1.1"
   id="Layer_1"
   x="0px"
   y="0px"
   viewBox="-223 25 512 512"
   style="enable-background:new -223 25 512 512;"
   xml:space="preserve"
   inkscape:version="0.91 r13725"
   sodipodi:docname="FB-01.svg"><metadata
     id="metadata13"><rdf:RDF><cc:Work
         rdf:about=""><dc:format>image/svg+xml</dc:format><dc:type
           rdf:resource="http://purl.org/dc/dcmitype/StillImage" /></cc:Work></rdf:RDF></metadata><defs
     id="defs11" /><sodipodi:namedview
     pagecolor="#ffffff"
     bordercolor="#666666"
     borderopacity="1"
     objecttolerance="10"
     gridtolerance="10"
     guidetolerance="10"
     inkscape:pageopacity="0"
     inkscape:pageshadow="2"
     inkscape:window-width="1555"
     inkscape:window-height="876"
     id="namedview9"
     showgrid="false"
     inkscape:zoom="0.4609375"
     inkscape:cx="253.83051"
     inkscape:cy="256"
     inkscape:window-x="45"
     inkscape:window-y="24"
     inkscape:window-maximized="1"
     inkscape:current-layer="Layer_1" /><style
     type="text/css"
     id="style3">
	.st0{fill:#3D4351;}
</style><path
     class="st0"
     d="m 33,41 c -132,0 -240,107 -240,240 0,132 107,240 240,240 C 165,521 273,414 273,281 273,149 166,41 33,41 Z m 0,453 c -118,0 -213,-95 -213,-213 0,-118 95,-213 213,-213 118,0 213,95 213,213 0,118 -95,213 -213,213 z"
     id="path5"
     inkscape:connector-curvature="0"
     style="fill:#3d4351" /><path
     class="st0"
     d="m 91.85,236.4 -40.1,0 0,-26.4 c 0,-9.9 6.5,-12.2 11.2,-12.2 4.6,0 28.3,0 28.3,0 l 0,-43.4 -39,-0.2 c -43.3,0 -53.1,32.4 -53.1,53.1 l 0,29 -25,0 0,44.8 25,0 c 0,57.4 0,126.7 0,126.7 l 52.6,0 c 0,0 0,-69.9 0,-126.7 l 35.5,0 4.6,-44.7 z"
     id="path7"
     inkscape:connector-curvature="0"
     style="fill:#3d4351" /></svg>