<?xml version="1.0" encoding="utf-8"?>
<!-- Generator: Adobe Illustrator 19.1.1, SVG Export Plug-In . SVG Version: 6.00 Build 0)  -->
<svg version="1.1" id="Слой_1" xmlns="http://www.w3.org/2000/svg" xmlns:xlink="http://www.w3.org/1999/xlink" x="0px" y="0px"
	 viewBox="-464 266 30 30" style="enable-background:new -464 266 30 30;" xml:space="preserve">
<style type="text/css">
	.st0{fill-rule:evenodd;clip-rule:evenodd;fill:#E6B8A9;}
</style>
<g>
	<path class="st0" d="M-449,267.7c7.4,0,13.3,5.9,13.3,13.3s-5.9,13.3-13.3,13.3s-13.3-5.9-13.3-13.3S-456.4,267.7-449,267.7z
		 M-449,266c8.3,0,15,6.8,15,15c0,8.3-6.8,15-15,15c-8.3,0-15-6.8-15-15C-464,272.7-457.3,266-449,266z"/>
	<path class="st0" d="M-456.2,277.3h1.1c0,0,0.6-0.1,0.8,0.4c0.1,0.4,1.1,2.3,1.5,2.8s1.1,1.1,1.3,0.4s0.1-2.4,0.1-2.4
		s-0.1-0.6-0.3-0.8c-0.1-0.2-0.6-0.3-0.6-0.3s-0.3-0.2,0.1-0.4s2.3-0.3,3.1-0.1s0.6,1.6,0.6,1.6v2.1c0,0,0,1.1,0.7,0.5
		c0.7-0.5,1.1-1.5,1.5-2.3s0.4-1,0.4-1s0.1-0.5,0.6-0.5s2.7,0,2.7,0s0.7-0.1,0.4,0.6s-1.6,2.5-1.6,2.5l-0.7,0.8c0,0-0.6,0.6,0.1,1.3
		c0.6,0.6,1.9,1.9,1.9,1.9s0.4,0.4,0.3,0.9c-0.1,0.4-0.9,0.4-1.1,0.4s-1.7,0-1.7,0s-0.8,0.1-1.3-0.5c-0.4-0.5-1.3-1.4-1.3-1.4
		s-0.6-0.5-0.8-0.1s-0.3,0.9-0.3,1.1s0,0.4,0,0.4s-0.1,0.4-0.8,0.4c-0.8,0-1.3,0-1.3,0s-1.7-0.3-2.9-1.3s-2.3-2.9-2.6-3.5
		s-1.6-3.1-1.6-3.1s-0.2-0.6,0.6-0.6S-456.1,277.3-456.2,277.3L-456.2,277.3z"/>
</g>
</svg>
