<?xml version="1.0" encoding="UTF-8" standalone="no"?>
<!-- Generator: Adobe Illustrator 19.1.1, SVG Export Plug-In . SVG Version: 6.00 Build 0)  -->

<svg
   xmlns:dc="http://purl.org/dc/elements/1.1/"
   xmlns:cc="http://creativecommons.org/ns#"
   xmlns:rdf="http://www.w3.org/1999/02/22-rdf-syntax-ns#"
   xmlns:svg="http://www.w3.org/2000/svg"
   xmlns="http://www.w3.org/2000/svg"
   xmlns:sodipodi="http://sodipodi.sourceforge.net/DTD/sodipodi-0.dtd"
   xmlns:inkscape="http://www.inkscape.org/namespaces/inkscape"
   version="1.1"
   id="Layer_1"
   x="0px"
   y="0px"
   viewBox="-467 269 24 24"
   style="enable-background:new -467 269 24 24;"
   xml:space="preserve"
   inkscape:version="0.91 r13725"
   sodipodi:docname="Odnoklasniki-01.svg"><metadata
     id="metadata17"><rdf:RDF><cc:Work
         rdf:about=""><dc:format>image/svg+xml</dc:format><dc:type
           rdf:resource="http://purl.org/dc/dcmitype/StillImage" /></cc:Work></rdf:RDF></metadata><defs
     id="defs15" /><sodipodi:namedview
     pagecolor="#ffffff"
     bordercolor="#666666"
     borderopacity="1"
     objecttolerance="10"
     gridtolerance="10"
     guidetolerance="10"
     inkscape:pageopacity="0"
     inkscape:pageshadow="2"
     inkscape:window-width="1555"
     inkscape:window-height="876"
     id="namedview13"
     showgrid="false"
     inkscape:zoom="9.8333333"
     inkscape:cx="11.898305"
     inkscape:cy="12"
     inkscape:window-x="45"
     inkscape:window-y="24"
     inkscape:window-maximized="1"
     inkscape:current-layer="Layer_1" /><style
     type="text/css"
     id="style3">
	.st0{fill:#3C4250;}
</style><path
     class="st0"
     d="m -455,269 c -6.6,0 -12,5.3 -12,12 0,6.6 5.3,12 12,12 6.6,0 12,-5.4 12,-12 0,-6.6 -5.4,-12 -12,-12 z m 0,22.6 c -5.9,0 -10.6,-4.7 -10.6,-10.6 0,-5.9 4.7,-10.6 10.6,-10.6 5.9,0 10.6,4.8 10.6,10.6 0,5.8 -4.7,10.6 -10.6,10.6 z"
     id="path5"
     inkscape:connector-curvature="0"
     style="fill:#3c4250" /><g
     id="g7"
     transform="translate(466.95645,-269.0125)"><path
       class="st0"
       d="m -922,545.2 c 0.9,0 1.6,0.7 1.6,1.6 0,0.9 -0.7,1.6 -1.6,1.6 -0.9,0 -1.6,-0.7 -1.6,-1.6 0,-0.9 0.7,-1.6 1.6,-1.6 l 0,0 z m 0,4.9 c 1.8,0 3.3,-1.5 3.3,-3.3 0,-1.8 -1.5,-3.3 -3.3,-3.3 -1.8,0 -3.3,1.5 -3.3,3.3 0,1.8 1.5,3.3 3.3,3.3 z"
       id="path9"
       inkscape:connector-curvature="0"
       style="fill:#3c4250" /><path
       class="st0"
       d="m -919.6,550.3 c -0.9,0.7 -2.4,0.7 -2.4,0.7 0,0 -1.5,0 -2.4,-0.7 -0.7,-0.5 -1.2,-0.2 -1.4,0.1 -0.3,0.6 0,1 0.9,1.5 0.7,0.5 1.7,0.6 2.3,0.7 l -0.5,0.5 c -0.7,0.7 -1.4,1.4 -1.9,1.9 -0.3,0.3 -0.5,0.8 -0.1,1.2 0.4,0.4 0.9,0.4 1.2,0.1 l 1.9,-1.9 c 0.7,0.7 1.4,1.4 1.9,1.9 0.3,0.3 0.8,0.3 1.1,0 l 0.1,-0.1 c 0.3,-0.3 0.3,-0.8 0,-1.1 l -1.9,-1.9 -0.5,-0.5 c 0.6,-0.1 1.6,-0.2 2.3,-0.7 0.8,-0.5 1.2,-0.8 0.9,-1.5 -0.3,-0.4 -0.8,-0.7 -1.5,-0.2 l 0,0 z"
       id="path11"
       inkscape:connector-curvature="0"
       style="fill:#3c4250" /></g></svg>