<?xml version="1.0" encoding="utf-8"?>
<!-- Generator: Adobe Illustrator 19.1.1, SVG Export Plug-In . SVG Version: 6.00 Build 0)  -->
<svg version="1.1" id="Слой_1" xmlns="http://www.w3.org/2000/svg" xmlns:xlink="http://www.w3.org/1999/xlink" x="0px" y="0px"
	 viewBox="-464 266 30 30" style="enable-background:new -464 266 30 30;" xml:space="preserve">
<style type="text/css">
	.st0{fill-rule:evenodd;clip-rule:evenodd;fill:#E6B8A9;}
	.st1{fill:#E6B8A9;}
</style>
<g>
	<path class="st0" d="M-449,267.7c7.4,0,13.3,5.9,13.3,13.3s-5.9,13.3-13.3,13.3s-13.3-5.9-13.3-13.3S-456.4,267.7-449,267.7z
		 M-449,266c8.3,0,15,6.8,15,15c0,8.3-6.8,15-15,15c-8.3,0-15-6.8-15-15C-464,272.7-457.3,266-449,266z"/>
	<path class="st1" d="M-444.3,274.9h-9c-0.9,0-1.5,0.7-1.5,1.5v9c0,0.9,0.7,1.5,1.5,1.5h9c0.9,0,1.5-0.7,1.5-1.5h0v-9
		C-442.8,275.6-443.5,274.9-444.3,274.9z M-446.6,276.8c0-0.3,0.2-0.5,0.5-0.5h1.4c0.3,0,0.5,0.2,0.5,0.5v1.3c0,0.3-0.2,0.5-0.5,0.5
		h-1.4c-0.3,0-0.5-0.2-0.5-0.5V276.8z M-448.8,278.6c1.3,0,2.4,1.1,2.4,2.3c0,1.3-1.1,2.3-2.4,2.3c-1.3,0-2.4-1.1-2.4-2.3
		C-451.2,279.6-450.1,278.6-448.8,278.6z M-444.1,285.1c0,0.3-0.2,0.5-0.5,0.5h-8.4c-0.3,0-0.5-0.2-0.5-0.5V280h1.1
		c-0.1,0.3-0.2,0.7-0.2,1c0,2,1.7,3.6,3.8,3.6c2.1,0,3.8-1.6,3.8-3.6c0-0.4-0.1-0.7-0.2-1h1.1V285.1z"/>
</g>
</svg>
